<svg xmlns="http://www.w3.org/2000/svg" viewBox="-15 -15 180 180" height="60pt" width="60pt">
    <g>
        <path fill="#91C144" d="M19.898,51.316l37.424-21.605L37.424,18.223L0,39.829v80.599l19.898,11.487l0-33.383
			l49.083,28.339v-0.001l11.928-6.887l-0.002-22.977l-11.926,6.887L19.898,75.556V51.316" />
        <path fill="#1473B1" d="M76.873,27.534L49.082,11.489L68.98,0l69.801,40.299v46.586l-19.898,11.487V51.787v0.001
			L96.771,39.022L47.687,67.36v13.773L27.788,69.646V55.872L76.873,27.534" />
        <path fill="none" d="M76.873,27.534" />
        <path fill="#44cccc" d="M88.283,69.453l-0.001,55.85l-19.301,11.144v-0.001l-37.423-21.607l-0.001,22.977
			l37.424,21.607l69.801-40.299l-0.001-22.976l-30.601,17.668V57.964l-11.928-6.886L76.355,62.568L88.283,69.453z" />
    </g>
</svg>